<?xml version="1.0" encoding="utf-8"?>
<!-- Generator: Adobe Illustrator 26.5.0, SVG Export Plug-In . SVG Version: 6.00 Build 0)  -->
<svg version="1.1" id="Layer_1" xmlns="http://www.w3.org/2000/svg" xmlns:xlink="http://www.w3.org/1999/xlink" x="0px" y="0px"
	 viewBox="0 0 512 512" style="enable-background:new 0 0 512 512;" xml:space="preserve">
<style type="text/css">
	.st0{fill:#4285F4;}
	.st1{fill:#EA4335;}
	.st2{fill:#FBBC05;}
	.st3{fill:#34A853;}
</style>
<g id="XMLID_24_">
	<path id="XMLID_26_" class="st0" d="M125.92,231.37H66.14v17.71h42.34c-2.08,24.91-22.83,35.42-42.34,35.42
		c-25.05,0-46.77-19.65-46.77-47.19c0-26.85,20.76-47.46,46.77-47.46c20.06,0,31.97,12.87,31.97,12.87l12.45-12.87
		c0,0-15.91-17.71-44.97-17.71C28.64,172.14,0,203.42,0,237.04c0,33.07,26.98,65.31,66.56,65.31c34.87,0,60.33-23.94,60.33-59.23
		C126.89,235.66,125.92,231.37,125.92,231.37L125.92,231.37z"/>
	<path id="XMLID_32_" class="st1" d="M174.77,218.5c-24.49,0-42.07,19.23-42.07,41.51c0,22.69,17.02,42.21,42.34,42.21
		c22.97,0,41.65-17.57,41.65-41.65C216.84,232.75,194.98,218.5,174.77,218.5z M175.05,234.97c12.04,0,23.52,9.69,23.52,25.46
		c0,15.36-11.35,25.46-23.52,25.46c-13.42,0-23.94-10.66-23.94-25.46C151.11,245.76,161.49,234.97,175.05,234.97z"/>
	<path id="XMLID_35_" class="st2" d="M266.38,218.5c-24.49,0-42.07,19.23-42.07,41.51c0,22.69,17.02,42.21,42.34,42.21
		c22.97,0,41.65-17.57,41.65-41.65C308.31,232.75,286.44,218.5,266.38,218.5L266.38,218.5z M266.66,234.97
		c12.04,0,23.52,9.69,23.52,25.46c0,15.36-11.35,25.46-23.52,25.46c-13.42,0-23.94-10.66-23.94-25.46
		C242.58,245.76,253.09,234.97,266.66,234.97z"/>
	<path id="XMLID_38_" class="st0" d="M356.05,218.5c-22.56,0-40.13,19.65-40.13,41.79c0,25.18,20.48,41.93,39.85,41.93
		c11.9,0,18.27-4.7,22.97-10.24v8.3c0,14.39-8.72,23.11-22,23.11c-12.73,0-19.23-9.55-21.45-14.94l-16.05,6.78
		c5.67,12.04,17.16,24.63,37.64,24.63c22.42,0,39.44-14.11,39.44-43.59v-75.28h-17.57v7.06C373.34,222.37,365.87,218.5,356.05,218.5
		L356.05,218.5z M357.71,234.97c11.07,0,22.42,9.41,22.42,25.46c0,16.33-11.35,25.32-22.56,25.32c-12.04,0-23.11-9.69-23.11-25.18
		C334.32,244.51,345.95,234.97,357.71,234.97L357.71,234.97z"/>
	<path id="XMLID_42_" class="st1" d="M474.22,218.5c-21.17,0-39.02,16.88-39.02,41.79c0,26.43,19.93,42.07,41.1,42.07
		c17.71,0,28.64-9.69,35.01-18.4l-14.53-9.69c-3.74,5.81-10.1,11.49-20.48,11.49c-11.76,0-17.16-6.5-20.48-12.73L512,249.77
		l-2.91-6.78C503.7,229.57,490.97,218.5,474.22,218.5L474.22,218.5z M475.05,234.55c7.61,0,13.15,4.01,15.5,8.99l-37.5,15.64
		C451.39,247.01,462.88,234.55,475.05,234.55z"/>
	<rect id="XMLID_43_" x="408.49" y="176.43" class="st3" width="18.4" height="123.43"/>
</g>
</svg>
